<?xml version="1.0" encoding="UTF-8" standalone="no"?>
<!-- Created with Inkscape (http://www.inkscape.org/) -->
<svg
   xmlns:dc="http://purl.org/dc/elements/1.1/"
   xmlns:cc="http://web.resource.org/cc/"
   xmlns:rdf="http://www.w3.org/1999/02/22-rdf-syntax-ns#"
   xmlns:svg="http://www.w3.org/2000/svg"
   xmlns="http://www.w3.org/2000/svg"
   xmlns:xlink="http://www.w3.org/1999/xlink"
   xmlns:sodipodi="http://sodipodi.sourceforge.net/DTD/sodipodi-0.dtd"
   xmlns:inkscape="http://www.inkscape.org/namespaces/inkscape"
   width="15"
   height="12"
   id="svg2"
   sodipodi:version="0.32"
   inkscape:version="0.45.1"
   version="1.0"
   sodipodi:docbase="/Users/martin/Documents/workspace/mf_mysql_profiler"
   sodipodi:docname="icon.svg"
   inkscape:output_extension="org.inkscape.output.svg.inkscape"
   inkscape:export-filename="/Users/martin/Documents/workspace/mf_mysql_profiler/icon.png"
   inkscape:export-xdpi="90"
   inkscape:export-ydpi="90">
  <defs
     id="defs4">
    <linearGradient
       id="linearGradient4135">
      <stop
         style="stop-color:#6e65a7;stop-opacity:1;"
         offset="0"
         id="stop4137" />
      <stop
         id="stop4143"
         offset="0.22123894"
         style="stop-color:#cdcdcd;stop-opacity:1;" />
      <stop
         style="stop-color:#7566a8;stop-opacity:1;"
         offset="1"
         id="stop4139" />
    </linearGradient>
    <linearGradient
       inkscape:collect="always"
       xlink:href="#linearGradient4135"
       id="linearGradient4141"
       x1="3.368068"
       y1="6.539483"
       x2="12.493068"
       y2="6.539483"
       gradientUnits="userSpaceOnUse" />
    <filter
       inkscape:collect="always"
       id="filter5178">
      <feGaussianBlur
         inkscape:collect="always"
         stdDeviation="0.20275317"
         id="feGaussianBlur5180" />
    </filter>
  </defs>
  <sodipodi:namedview
     id="base"
     pagecolor="#ffffff"
     bordercolor="#666666"
     borderopacity="1.0"
     inkscape:pageopacity="0.0"
     inkscape:pageshadow="2"
     inkscape:zoom="31.456195"
     inkscape:cx="9.415291"
     inkscape:cy="6.2427473"
     inkscape:document-units="px"
     inkscape:current-layer="layer1"
     width="15px"
     height="12px"
     inkscape:window-width="905"
     inkscape:window-height="843"
     inkscape:window-x="1633"
     inkscape:window-y="22" />
  <metadata
     id="metadata7">
    <rdf:RDF>
      <cc:Work
         rdf:about="">
        <dc:format>image/svg+xml</dc:format>
        <dc:type
           rdf:resource="http://purl.org/dc/dcmitype/StillImage" />
      </cc:Work>
    </rdf:RDF>
  </metadata>
  <g
     inkscape:label="Ebene 1"
     inkscape:groupmode="layer"
     id="layer1">
    <path
       sodipodi:type="arc"
       style="opacity:1;fill:#cec9e7;fill-opacity:1;stroke:#000000;stroke-width:0.23183864;stroke-miterlimit:4;stroke-dasharray:none;stroke-opacity:1"
       id="path2178"
       sodipodi:cx="7.5572038"
       sodipodi:cy="2.0452623"
       sodipodi:rx="4.3973203"
       sodipodi:ry="0.89493203"
       d="M 11.954524 2.0452623 A 4.3973203 0.89493203 0 1 1  3.1598835,2.0452623 A 4.3973203 0.89493203 0 1 1  11.954524 2.0452623 z"
       transform="matrix(1.28256,0,0,1.305549,-2.0719684,-1.3023673)" />
    <path
       style="opacity:1;fill:url(#linearGradient4141);fill-opacity:1;stroke:#000000;stroke-width:0.30000001;stroke-miterlimit:4;stroke-dasharray:none;stroke-opacity:1"
       d="M 1.9840515,1.3495291 C 1.9841917,4.0193005 1.9840515,6.8266466 1.9840515,9.4276136 C 1.9840515,10.749352 4.5106941,11.793921 7.6238791,11.793921 C 10.737064,11.793921 13.263707,10.749353 13.263707,9.4276136 L 13.263707,1.3495291 C 13.263707,1.9944736 10.737064,2.5326829 7.6238791,2.5326829 C 4.5106941,2.5326829 1.9840515,1.9944736 1.9840515,1.3495291 z "
       id="rect2180"
       sodipodi:nodetypes="ccsccsc" />
    <path
       style="fill:none;fill-opacity:1;stroke:#000000;stroke-width:0.30000001;stroke-miterlimit:4;stroke-dasharray:none;stroke-opacity:1"
       d="M 13.260427,3.9831422 C 13.260427,4.7876051 10.733785,5.440501 7.6205997,5.440501 C 4.507415,5.440501 1.9807722,4.7876051 1.9807722,3.9831422"
       id="path4128"
       sodipodi:nodetypes="css" />
    <path
       style="fill:none;fill-opacity:1;stroke:#000000;stroke-width:0.30000001;stroke-miterlimit:4;stroke-dasharray:none;stroke-opacity:1"
       d="M 13.260427,7.2213646 C 13.260427,8.1215382 10.733785,8.8521121 7.6205997,8.8521121 C 4.507415,8.8521121 1.9807722,8.1215382 1.9807722,7.2213646"
       id="path4133"
       sodipodi:nodetypes="css" />
    <path
       style="fill:#000000;fill-opacity:1;fill-rule:evenodd;stroke:#ffffff;stroke-width:0.4;stroke-linecap:butt;stroke-linejoin:round;stroke-miterlimit:4;stroke-dasharray:none;stroke-opacity:1"
       d="M 3.9375,0.34375 C 3.673903,0.39748547 3.4592694,0.58827094 3.375,0.84375 L 1.625,5.90625 C 1.5196099,5.8478436 1.4017001,5.8156863 1.28125,5.8125 L -1.96875,5.8125 L -1.96875,7.3125 L 0.84375,7.3125 L 1.25,7.9375 C 1.4039731,8.1816308 1.6843674,8.3157563 1.9710662,8.2824192 C 2.257765,8.2490821 2.4999022,8.0541972 2.59375,7.78125 L 3.96875,3.6875 L 5.90625,11 C 5.993965,11.320055 6.2815685,11.544429 6.6133475,11.551642 C 6.9451264,11.558854 7.242209,11.347191 7.34375,11.03125 C 7.34375,11.03125 8.0011381,8.8750806 8.5,7.25 C 8.6080661,7.2976014 8.7258444,7.3190157 8.84375,7.3125 C 8.84375,7.3125 17,7.3125 17,7.3125 L 17,5.8125 C 17,5.8125 10.188395,5.8125 9.34375,5.8125 L 9,5 C 8.8725726,4.7117442 8.578541,4.5338916 8.2640737,4.5548561 C 7.9496065,4.5758206 7.6817857,4.79113 7.59375,5.09375 C 7.59375,5.09375 7.1401863,6.58784 6.6875,8.0625 L 4.8125,0.875 C 4.7057679,0.49548509 4.3234558,0.26336701 3.9375,0.34375 L 3.9375,0.34375 z "
       id="path4161"
       sodipodi:nodetypes="ccccccccscccscccccccsccccc" />
  </g>
</svg>
